<svg width="230" height="77" viewBox="0 0 230 77" fill="none" xmlns="http://www.w3.org/2000/svg">
<rect width="230" height="54" fill="#1A3C34"/>
<path d="M13.3336 44H12.6836L17.0336 9H18.6836L29.1836 41.35L39.6336 9H41.2836L45.6336 44H41.4836L38.0336 16L28.9836 44H25.8336L16.6836 16.35L13.3336 44ZM51.2309 44H50.6309L65.5809 9L66.1309 8.75L78.7309 44H74.4809L70.5809 33H55.9809L51.2309 44ZM64.0309 14.4L56.1809 32.5H70.4309L64.0309 14.4ZM102.184 11.1C99.151 9.93333 96.2844 9.35 93.5844 9.35C90.9177 9.35 88.8344 9.91667 87.3344 11.05C85.8344 12.1833 85.0844 13.75 85.0844 15.75C85.0844 18.1833 86.351 20.0667 88.8844 21.4C90.0177 21.9667 91.251 22.5 92.5844 23C93.951 23.4667 95.3177 24 96.6844 24.6C98.051 25.2 99.301 25.8833 100.434 26.65C101.568 27.4167 102.484 28.4833 103.184 29.85C103.884 31.1833 104.234 32.9 104.234 35C104.234 37.0667 103.651 38.8333 102.484 40.3C101.318 41.7667 99.901 42.7667 98.2344 43.3C96.601 43.8 94.6844 44.05 92.4844 44.05C88.3844 44.05 84.8844 43.0333 81.9844 41L82.2344 40.6C83.3344 41.4667 84.751 42.1833 86.4844 42.75C88.251 43.2833 90.051 43.55 91.8844 43.55C94.5844 43.55 96.8844 42.9333 98.7844 41.7C100.718 40.4333 101.684 38.5833 101.684 36.15C101.684 33.4833 100.418 31.4 97.8844 29.9C96.751 29.2333 95.501 28.6167 94.1344 28.05C92.801 27.4833 91.451 26.9 90.0844 26.3C88.7177 25.6667 87.4677 24.9667 86.3344 24.2C83.801 22.5333 82.5344 20.1667 82.5344 17.1C82.5344 14.6667 83.351 12.7 84.9844 11.2C86.6177 9.66667 89.0677 8.9 92.3344 8.9C95.6344 8.9 98.9844 9.46667 102.384 10.6L102.184 11.1ZM127.917 11.1C124.883 9.93333 122.017 9.35 119.317 9.35C116.65 9.35 114.567 9.91667 113.067 11.05C111.567 12.1833 110.817 13.75 110.817 15.75C110.817 18.1833 112.083 20.0667 114.617 21.4C115.75 21.9667 116.983 22.5 118.317 23C119.683 23.4667 121.05 24 122.417 24.6C123.783 25.2 125.033 25.8833 126.167 26.65C127.3 27.4167 128.217 28.4833 128.917 29.85C129.617 31.1833 129.967 32.9 129.967 35C129.967 37.0667 129.383 38.8333 128.217 40.3C127.05 41.7667 125.633 42.7667 123.967 43.3C122.333 43.8 120.417 44.05 118.217 44.05C114.117 44.05 110.617 43.0333 107.717 41L107.967 40.6C109.067 41.4667 110.483 42.1833 112.217 42.75C113.983 43.2833 115.783 43.55 117.617 43.55C120.317 43.55 122.617 42.9333 124.517 41.7C126.45 40.4333 127.417 38.5833 127.417 36.15C127.417 33.4833 126.15 31.4 123.617 29.9C122.483 29.2333 121.233 28.6167 119.867 28.05C118.533 27.4833 117.183 26.9 115.817 26.3C114.45 25.6667 113.2 24.9667 112.067 24.2C109.533 22.5333 108.267 20.1667 108.267 17.1C108.267 14.6667 109.083 12.7 110.717 11.2C112.35 9.66667 114.8 8.9 118.067 8.9C121.367 8.9 124.717 9.46667 128.117 10.6L127.917 11.1ZM133.799 44H133.199L148.149 9L148.699 8.75L161.299 44H157.049L153.149 33H138.549L133.799 44ZM146.599 14.4L138.749 32.5H152.999L146.599 14.4ZM181.776 44.2C175.543 44.2 170.926 42.4333 167.926 38.9C166.86 37.6333 165.993 35.95 165.326 33.85C164.66 31.75 164.326 29.2 164.326 26.2C164.326 23.2 164.81 20.5167 165.776 18.15C166.776 15.75 168.126 13.9 169.826 12.6C173.126 10.1667 177.11 8.95 181.776 8.95C183.276 8.95 184.743 9.06667 186.176 9.3C187.61 9.5 188.676 9.71666 189.376 9.95L190.426 10.3L190.276 10.8C187.676 9.9 184.843 9.45 181.776 9.45C178.243 9.45 175.293 10.6 172.926 12.9C171.126 14.6 169.86 17.1 169.126 20.4C168.693 22.2667 168.476 24.55 168.476 27.25C168.476 29.95 168.86 32.45 169.626 34.75C170.393 37.0167 171.26 38.7 172.226 39.8C173.226 40.9 174.426 41.7833 175.826 42.45C177.226 43.0833 178.343 43.45 179.176 43.55C180.01 43.65 180.993 43.7 182.126 43.7C183.293 43.7 184.843 43.5667 186.776 43.3V33H180.726V32.5H193.076V33H190.926V42.85C188.393 43.75 185.343 44.2 181.776 44.2ZM217.697 9V9.5H201.947V24.5H216.547V25H201.947V43.5H218.797V44H197.797V9H217.697Z" fill="#D9C2A7"/>
<path d="M6.8733 72.18C5.9373 72.192 5.1333 72.036 4.4613 71.712C3.7893 71.388 3.1413 70.914 2.5173 70.29C2.4933 70.266 2.4693 70.236 2.4453 70.2C2.4213 70.152 2.4093 70.092 2.4093 70.02C2.4093 69.924 2.4513 69.834 2.5353 69.75C2.6193 69.654 2.7093 69.606 2.8053 69.606C2.9133 69.606 3.0153 69.66 3.1113 69.768C3.5913 70.32 4.1493 70.74 4.7853 71.028C5.4333 71.316 6.1053 71.46 6.8013 71.46C7.4133 71.46 7.9593 71.364 8.4393 71.172C8.9193 70.968 9.2973 70.686 9.5733 70.326C9.8493 69.954 9.9873 69.522 9.9873 69.03C9.9753 68.418 9.8073 67.926 9.4833 67.554C9.1593 67.182 8.7393 66.876 8.2233 66.636C7.7193 66.396 7.1853 66.174 6.6213 65.97C6.1773 65.802 5.7393 65.628 5.3073 65.448C4.8753 65.268 4.4853 65.052 4.1373 64.8C3.7893 64.536 3.5133 64.212 3.3093 63.828C3.1053 63.432 3.0033 62.946 3.0033 62.37C3.0033 61.782 3.1593 61.254 3.4713 60.786C3.7953 60.306 4.2513 59.928 4.8393 59.652C5.4393 59.364 6.1473 59.22 6.9633 59.22C7.6473 59.22 8.3133 59.346 8.9613 59.598C9.6093 59.838 10.1193 60.204 10.4913 60.696C10.6113 60.864 10.6713 60.99 10.6713 61.074C10.6713 61.158 10.6233 61.242 10.5273 61.326C10.4433 61.41 10.3473 61.452 10.2393 61.452C10.1433 61.452 10.0653 61.416 10.0053 61.344C9.7893 61.056 9.5253 60.81 9.2133 60.606C8.9133 60.39 8.5713 60.228 8.1873 60.12C7.8033 60 7.3953 59.94 6.9633 59.94C6.3753 59.94 5.8413 60.036 5.3613 60.228C4.8813 60.42 4.4973 60.696 4.2093 61.056C3.9213 61.404 3.7773 61.836 3.7773 62.352C3.7773 62.904 3.9333 63.36 4.2453 63.72C4.5693 64.068 4.9773 64.362 5.4693 64.602C5.9613 64.83 6.4653 65.04 6.9813 65.232C7.4373 65.388 7.8873 65.562 8.3313 65.754C8.7873 65.934 9.1953 66.162 9.5553 66.438C9.9273 66.714 10.2213 67.062 10.4373 67.482C10.6533 67.902 10.7613 68.43 10.7613 69.066C10.7613 69.618 10.5993 70.128 10.2753 70.596C9.9633 71.064 9.5193 71.442 8.9433 71.73C8.3673 72.018 7.6773 72.168 6.8733 72.18ZM18.7318 71.622C18.7198 71.73 18.6778 71.82 18.6058 71.892C18.5338 71.964 18.4498 72 18.3538 72C18.2338 72 18.1378 71.964 18.0658 71.892C18.0058 71.82 17.9758 71.73 17.9758 71.622V59.778C17.9758 59.67 18.0118 59.58 18.0838 59.508C18.1558 59.436 18.2458 59.4 18.3538 59.4C18.4618 59.4 18.5518 59.436 18.6238 59.508C18.6958 59.58 18.7318 59.67 18.7318 59.778V71.622ZM35.9432 59.4C36.0512 59.4 36.1352 59.436 36.1952 59.508C36.2552 59.568 36.2852 59.646 36.2852 59.742V71.604C36.2852 71.736 36.2432 71.838 36.1592 71.91C36.0872 71.97 36.0032 72 35.9072 72C35.8592 72 35.8052 71.988 35.7452 71.964C35.6972 71.94 35.6552 71.904 35.6192 71.856L27.2672 60.444L27.5192 60.318V71.694C27.5192 71.778 27.4832 71.85 27.4112 71.91C27.3512 71.97 27.2732 72 27.1772 72C27.0692 72 26.9852 71.97 26.9252 71.91C26.8652 71.85 26.8352 71.778 26.8352 71.694V59.76C26.8352 59.628 26.8712 59.538 26.9432 59.49C27.0152 59.43 27.0872 59.4 27.1592 59.4C27.2072 59.4 27.2552 59.412 27.3032 59.436C27.3512 59.448 27.3932 59.478 27.4292 59.526L35.7452 70.866L35.6012 71.226V59.742C35.6012 59.646 35.6372 59.568 35.7092 59.508C35.7812 59.436 35.8592 59.4 35.9432 59.4ZM63.0537 60.444C63.1497 60.516 63.2037 60.6 63.2157 60.696C63.2277 60.78 63.2037 60.87 63.1437 60.966C63.0837 61.05 63.0057 61.098 62.9097 61.11C62.8257 61.11 62.7417 61.086 62.6577 61.038C62.1537 60.69 61.6017 60.414 61.0017 60.21C60.4137 60.006 59.7837 59.904 59.1117 59.904C58.3437 59.904 57.6237 60.048 56.9517 60.336C56.2917 60.612 55.7097 61.008 55.2057 61.524C54.7017 62.04 54.3057 62.652 54.0177 63.36C53.7297 64.068 53.5857 64.848 53.5857 65.7C53.5857 66.552 53.7297 67.332 54.0177 68.04C54.3057 68.748 54.7017 69.36 55.2057 69.876C55.7097 70.392 56.2917 70.794 56.9517 71.082C57.6237 71.358 58.3437 71.496 59.1117 71.496C59.7837 71.496 60.4137 71.394 61.0017 71.19C61.5897 70.986 62.1357 70.716 62.6397 70.38C62.7237 70.32 62.8137 70.296 62.9097 70.308C63.0057 70.32 63.0837 70.368 63.1437 70.452C63.2037 70.536 63.2277 70.626 63.2157 70.722C63.2037 70.818 63.1557 70.896 63.0717 70.956C62.7837 71.16 62.4177 71.358 61.9737 71.55C61.5417 71.742 61.0797 71.892 60.5877 72C60.0957 72.12 59.6037 72.18 59.1117 72.18C58.2477 72.18 57.4377 72.018 56.6817 71.694C55.9257 71.37 55.2597 70.92 54.6837 70.344C54.1077 69.756 53.6517 69.072 53.3157 68.292C52.9917 67.5 52.8297 66.636 52.8297 65.7C52.8297 64.764 52.9917 63.906 53.3157 63.126C53.6517 62.334 54.1077 61.65 54.6837 61.074C55.2597 60.486 55.9257 60.03 56.6817 59.706C57.4377 59.382 58.2477 59.22 59.1117 59.22C59.8437 59.22 60.5457 59.328 61.2177 59.544C61.9017 59.76 62.5137 60.06 63.0537 60.444ZM70.9037 71.622C70.8917 71.73 70.8497 71.82 70.7777 71.892C70.7057 71.964 70.6217 72 70.5257 72C70.4057 72 70.3097 71.964 70.2377 71.892C70.1777 71.82 70.1477 71.73 70.1477 71.622V59.778C70.1477 59.67 70.1837 59.58 70.2557 59.508C70.3277 59.436 70.4177 59.4 70.5257 59.4C70.6337 59.4 70.7237 59.436 70.7957 59.508C70.8677 59.58 70.9037 59.67 70.9037 59.778V71.622ZM82.571 72C82.463 72 82.373 71.964 82.301 71.892C82.241 71.82 82.211 71.736 82.211 71.64V59.832H82.931V71.64C82.931 71.736 82.895 71.82 82.823 71.892C82.751 71.964 82.667 72 82.571 72ZM78.197 60.084C78.101 60.084 78.017 60.054 77.945 59.994C77.873 59.922 77.837 59.838 77.837 59.742C77.837 59.646 77.873 59.568 77.945 59.508C78.017 59.436 78.101 59.4 78.197 59.4H86.945C87.041 59.4 87.125 59.436 87.197 59.508C87.269 59.568 87.305 59.646 87.305 59.742C87.305 59.85 87.269 59.934 87.197 59.994C87.125 60.054 87.041 60.084 86.945 60.084H78.197ZM101.731 59.328C101.851 59.328 101.941 59.37 102.001 59.454C102.061 59.538 102.091 59.61 102.091 59.67C102.091 59.718 102.085 59.76 102.073 59.796C102.061 59.832 102.043 59.868 102.019 59.904L97.7535 65.7L97.9155 65.178V71.64C97.9155 71.736 97.8795 71.82 97.8075 71.892C97.7355 71.964 97.6455 72 97.5375 72C97.4175 72 97.3215 71.964 97.2495 71.892C97.1895 71.82 97.1595 71.736 97.1595 71.64V65.304L97.2495 65.682L93.0375 59.904C93.0135 59.868 92.9955 59.832 92.9835 59.796C92.9715 59.76 92.9655 59.718 92.9655 59.67C92.9655 59.574 93.0075 59.496 93.0915 59.436C93.1755 59.364 93.2595 59.328 93.3435 59.328C93.4755 59.328 93.5775 59.382 93.6495 59.49L97.6455 64.944L97.4655 64.908L101.425 59.49C101.497 59.382 101.599 59.328 101.731 59.328ZM121.395 72.18C120.459 72.192 119.655 72.036 118.983 71.712C118.311 71.388 117.663 70.914 117.039 70.29C117.015 70.266 116.991 70.236 116.967 70.2C116.943 70.152 116.931 70.092 116.931 70.02C116.931 69.924 116.973 69.834 117.057 69.75C117.141 69.654 117.231 69.606 117.327 69.606C117.435 69.606 117.537 69.66 117.633 69.768C118.113 70.32 118.671 70.74 119.307 71.028C119.955 71.316 120.627 71.46 121.323 71.46C121.935 71.46 122.481 71.364 122.961 71.172C123.441 70.968 123.819 70.686 124.095 70.326C124.371 69.954 124.509 69.522 124.509 69.03C124.497 68.418 124.329 67.926 124.005 67.554C123.681 67.182 123.261 66.876 122.745 66.636C122.241 66.396 121.707 66.174 121.143 65.97C120.699 65.802 120.261 65.628 119.829 65.448C119.397 65.268 119.007 65.052 118.659 64.8C118.311 64.536 118.035 64.212 117.831 63.828C117.627 63.432 117.525 62.946 117.525 62.37C117.525 61.782 117.681 61.254 117.993 60.786C118.317 60.306 118.773 59.928 119.361 59.652C119.961 59.364 120.669 59.22 121.485 59.22C122.169 59.22 122.835 59.346 123.483 59.598C124.131 59.838 124.641 60.204 125.013 60.696C125.133 60.864 125.193 60.99 125.193 61.074C125.193 61.158 125.145 61.242 125.049 61.326C124.965 61.41 124.869 61.452 124.761 61.452C124.665 61.452 124.587 61.416 124.527 61.344C124.311 61.056 124.047 60.81 123.735 60.606C123.435 60.39 123.093 60.228 122.709 60.12C122.325 60 121.917 59.94 121.485 59.94C120.897 59.94 120.363 60.036 119.883 60.228C119.403 60.42 119.019 60.696 118.731 61.056C118.443 61.404 118.299 61.836 118.299 62.352C118.299 62.904 118.455 63.36 118.767 63.72C119.091 64.068 119.499 64.362 119.991 64.602C120.483 64.83 120.987 65.04 121.503 65.232C121.959 65.388 122.409 65.562 122.853 65.754C123.309 65.934 123.717 66.162 124.077 66.438C124.449 66.714 124.743 67.062 124.959 67.482C125.175 67.902 125.283 68.43 125.283 69.066C125.283 69.618 125.121 70.128 124.797 70.596C124.485 71.064 124.041 71.442 123.465 71.73C122.889 72.018 122.199 72.168 121.395 72.18ZM132.857 59.4H139.643C139.739 59.4 139.823 59.436 139.895 59.508C139.967 59.58 140.003 59.664 140.003 59.76C140.003 59.868 139.967 59.958 139.895 60.03C139.823 60.09 139.739 60.12 139.643 60.12H133.073L133.253 59.814V65.394L133.037 65.142H138.833C138.929 65.142 139.013 65.178 139.085 65.25C139.157 65.322 139.193 65.406 139.193 65.502C139.193 65.61 139.157 65.7 139.085 65.772C139.013 65.832 138.929 65.862 138.833 65.862H133.073L133.253 65.664V71.37L133.181 71.28H139.643C139.739 71.28 139.823 71.316 139.895 71.388C139.967 71.46 140.003 71.544 140.003 71.64C140.003 71.748 139.967 71.838 139.895 71.91C139.823 71.97 139.739 72 139.643 72H132.857C132.761 72 132.677 71.964 132.605 71.892C132.533 71.82 132.497 71.736 132.497 71.64V59.76C132.497 59.664 132.533 59.58 132.605 59.508C132.677 59.436 132.761 59.4 132.857 59.4ZM147.588 72C147.468 72 147.372 71.964 147.3 71.892C147.24 71.82 147.21 71.736 147.21 71.64V59.76C147.21 59.664 147.246 59.58 147.318 59.508C147.39 59.436 147.474 59.4 147.57 59.4H152.322C153.03 59.4 153.648 59.544 154.176 59.832C154.716 60.108 155.136 60.492 155.436 60.984C155.736 61.476 155.886 62.034 155.886 62.658C155.886 63.21 155.784 63.708 155.58 64.152C155.388 64.596 155.112 64.968 154.752 65.268C154.404 65.556 154.002 65.766 153.546 65.898L152.718 65.754C153.198 65.754 153.654 65.88 154.086 66.132C154.518 66.372 154.872 66.732 155.148 67.212C155.424 67.68 155.562 68.256 155.562 68.94C155.562 69.528 155.586 69.978 155.634 70.29C155.694 70.59 155.766 70.812 155.85 70.956C155.946 71.1 156.054 71.214 156.174 71.298C156.246 71.346 156.3 71.406 156.336 71.478C156.372 71.55 156.378 71.634 156.354 71.73C156.33 71.802 156.288 71.862 156.228 71.91C156.18 71.946 156.126 71.97 156.066 71.982C156.006 71.994 155.94 71.982 155.868 71.946C155.7 71.85 155.532 71.706 155.364 71.514C155.208 71.322 155.076 71.028 154.968 70.632C154.86 70.236 154.806 69.672 154.806 68.94C154.806 68.376 154.716 67.926 154.536 67.59C154.368 67.254 154.146 66.996 153.87 66.816C153.606 66.636 153.318 66.516 153.006 66.456C152.706 66.396 152.43 66.366 152.178 66.366H147.804L147.966 66.15V71.64C147.966 71.736 147.93 71.82 147.858 71.892C147.786 71.964 147.696 72 147.588 72ZM147.786 65.646H152.412C152.892 65.598 153.336 65.454 153.744 65.214C154.152 64.974 154.482 64.638 154.734 64.206C154.998 63.774 155.13 63.264 155.13 62.676C155.13 61.944 154.866 61.338 154.338 60.858C153.822 60.366 153.12 60.12 152.232 60.12H147.876L147.966 59.994V65.844L147.786 65.646ZM164.023 59.4H170.809C170.905 59.4 170.989 59.436 171.061 59.508C171.133 59.58 171.169 59.664 171.169 59.76C171.169 59.868 171.133 59.958 171.061 60.03C170.989 60.09 170.905 60.12 170.809 60.12H164.239L164.419 59.814V65.394L164.203 65.142H169.999C170.095 65.142 170.179 65.178 170.251 65.25C170.323 65.322 170.359 65.406 170.359 65.502C170.359 65.61 170.323 65.7 170.251 65.772C170.179 65.832 170.095 65.862 169.999 65.862H164.239L164.419 65.664V71.37L164.347 71.28H170.809C170.905 71.28 170.989 71.316 171.061 71.388C171.133 71.46 171.169 71.544 171.169 71.64C171.169 71.748 171.133 71.838 171.061 71.91C170.989 71.97 170.905 72 170.809 72H164.023C163.927 72 163.843 71.964 163.771 71.892C163.699 71.82 163.663 71.736 163.663 71.64V59.76C163.663 59.664 163.699 59.58 163.771 59.508C163.843 59.436 163.927 59.4 164.023 59.4ZM187.484 59.4C187.592 59.4 187.676 59.436 187.736 59.508C187.796 59.568 187.826 59.646 187.826 59.742V71.604C187.826 71.736 187.784 71.838 187.7 71.91C187.628 71.97 187.544 72 187.448 72C187.4 72 187.346 71.988 187.286 71.964C187.238 71.94 187.196 71.904 187.16 71.856L178.808 60.444L179.06 60.318V71.694C179.06 71.778 179.024 71.85 178.952 71.91C178.892 71.97 178.814 72 178.718 72C178.61 72 178.526 71.97 178.466 71.91C178.406 71.85 178.376 71.778 178.376 71.694V59.76C178.376 59.628 178.412 59.538 178.484 59.49C178.556 59.43 178.628 59.4 178.7 59.4C178.748 59.4 178.796 59.412 178.844 59.436C178.892 59.448 178.934 59.478 178.97 59.526L187.286 70.866L187.142 71.226V59.742C187.142 59.646 187.178 59.568 187.25 59.508C187.322 59.436 187.4 59.4 187.484 59.4ZM196.675 71.622C196.663 71.73 196.621 71.82 196.549 71.892C196.477 71.964 196.393 72 196.297 72C196.177 72 196.081 71.964 196.009 71.892C195.949 71.82 195.919 71.73 195.919 71.622V59.778C195.919 59.67 195.955 59.58 196.027 59.508C196.099 59.436 196.189 59.4 196.297 59.4C196.405 59.4 196.495 59.436 196.567 59.508C196.639 59.58 196.675 59.67 196.675 59.778V71.622ZM208.343 72C208.235 72 208.145 71.964 208.073 71.892C208.013 71.82 207.983 71.736 207.983 71.64V59.832H208.703V71.64C208.703 71.736 208.667 71.82 208.595 71.892C208.523 71.964 208.439 72 208.343 72ZM203.969 60.084C203.873 60.084 203.789 60.054 203.717 59.994C203.645 59.922 203.609 59.838 203.609 59.742C203.609 59.646 203.645 59.568 203.717 59.508C203.789 59.436 203.873 59.4 203.969 59.4H212.717C212.813 59.4 212.897 59.436 212.969 59.508C213.041 59.568 213.077 59.646 213.077 59.742C213.077 59.85 213.041 59.934 212.969 59.994C212.897 60.054 212.813 60.084 212.717 60.084H203.969ZM227.503 59.328C227.623 59.328 227.713 59.37 227.773 59.454C227.833 59.538 227.863 59.61 227.863 59.67C227.863 59.718 227.857 59.76 227.845 59.796C227.833 59.832 227.815 59.868 227.791 59.904L223.525 65.7L223.687 65.178V71.64C223.687 71.736 223.651 71.82 223.579 71.892C223.507 71.964 223.417 72 223.309 72C223.189 72 223.093 71.964 223.021 71.892C222.961 71.82 222.931 71.736 222.931 71.64V65.304L223.021 65.682L218.809 59.904C218.785 59.868 218.767 59.832 218.755 59.796C218.743 59.76 218.737 59.718 218.737 59.67C218.737 59.574 218.779 59.496 218.863 59.436C218.947 59.364 219.031 59.328 219.115 59.328C219.247 59.328 219.349 59.382 219.421 59.49L223.417 64.944L223.237 64.908L227.197 59.49C227.269 59.382 227.371 59.328 227.503 59.328Z" fill="#1A3C34"/>
</svg>
